<svg width="16" height="22" viewBox="0 0 16 22" fill="none" xmlns="http://www.w3.org/2000/svg">
<path d="M12.8 1.375C13.2243 1.375 13.6313 1.51987 13.9314 1.77773C14.2314 2.03559 14.4 2.38533 14.4 2.75V19.25C14.4 19.6147 14.2314 19.9644 13.9314 20.2223C13.6313 20.4801 13.2243 20.625 12.8 20.625H3.2C2.77565 20.625 2.36869 20.4801 2.06863 20.2223C1.76857 19.9644 1.6 19.6147 1.6 19.25V2.75C1.6 2.38533 1.76857 2.03559 2.06863 1.77773C2.36869 1.51987 2.77565 1.375 3.2 1.375H12.8ZM3.2 0C2.35131 0 1.53737 0.289731 0.937258 0.805456C0.337142 1.32118 0 2.02065 0 2.75V19.25C0 19.9793 0.337142 20.6788 0.937258 21.1945C1.53737 21.7103 2.35131 22 3.2 22H12.8C13.6487 22 14.4626 21.7103 15.0627 21.1945C15.6629 20.6788 16 19.9793 16 19.25V2.75C16 2.02065 15.6629 1.32118 15.0627 0.805456C14.4626 0.289731 13.6487 0 12.8 0L3.2 0Z" fill="black"/>
<path d="M8 18C8.26522 18 8.51957 17.8946 8.70711 17.7071C8.89464 17.5196 9 17.2652 9 17C9 16.7348 8.89464 16.4804 8.70711 16.2929C8.51957 16.1054 8.26522 16 8 16C7.73478 16 7.48043 16.1054 7.29289 16.2929C7.10536 16.4804 7 16.7348 7 17C7 17.2652 7.10536 17.5196 7.29289 17.7071C7.48043 17.8946 7.73478 18 8 18Z" fill="black"/>
</svg>
