<svg width="20" height="22" viewBox="0 0 20 22" fill="none" xmlns="http://www.w3.org/2000/svg">
<path d="M19 10.183V7.28C19 5.64 19 4.82 18.596 4.285C18.192 3.75 17.278 3.491 15.451 2.971C14.349 2.6545 13.2702 2.26258 12.222 1.798C11.023 1.266 10.424 1 10 1C9.576 1 8.977 1.266 7.778 1.798C6.898 2.188 5.798 2.616 4.549 2.971C2.722 3.491 1.809 3.751 1.404 4.285C1 4.82 1 5.64 1 7.28V10.183C1 15.808 6.063 19.183 8.594 20.519C9.201 20.839 9.504 21 10 21C10.496 21 10.799 20.84 11.406 20.52C13.937 19.182 19 15.808 19 10.183Z" stroke="black" stroke-width="2" stroke-linecap="round"/>
</svg>
