<svg width="20" height="20" viewBox="0 0 20 20" fill="none" xmlns="http://www.w3.org/2000/svg">
<path d="M12.75 9.75V12.75M9.75 0.75V3.75M15.75 9.75V12.75M9.75 15.75H18.75M15.75 18.75H18.75M3.75 9.75H6.75M3.75 3.761L3.76 3.75M9.75 9.761L9.76 9.75M0.75 9.761L0.76 9.75M9.75 6.761L9.76 6.75M9.75 12.761L9.76 12.75M12.75 18.761L12.76 18.75M9.75 18.761L9.76 18.75M18.75 9.761L18.76 9.75M18.75 12.761L18.76 12.75M15.75 3.761L15.76 3.75M3.75 15.761L3.76 15.75M6.75 1.35V6.15C6.75 6.30913 6.68679 6.46174 6.57426 6.57426C6.46174 6.68679 6.30913 6.75 6.15 6.75H1.35C1.19087 6.75 1.03826 6.68679 0.925736 6.57426C0.813214 6.46174 0.75 6.30913 0.75 6.15V1.35C0.75 1.19087 0.813214 1.03826 0.925736 0.925736C1.03826 0.813214 1.19087 0.75 1.35 0.75H6.15C6.30913 0.75 6.46174 0.813214 6.57426 0.925736C6.68679 1.03826 6.75 1.19087 6.75 1.35ZM18.75 1.35V6.15C18.75 6.30913 18.6868 6.46174 18.5743 6.57426C18.4617 6.68679 18.3091 6.75 18.15 6.75H13.35C13.1909 6.75 13.0383 6.68679 12.9257 6.57426C12.8132 6.46174 12.75 6.30913 12.75 6.15V1.35C12.75 1.19087 12.8132 1.03826 12.9257 0.925736C13.0383 0.813214 13.1909 0.75 13.35 0.75H18.15C18.3091 0.75 18.4617 0.813214 18.5743 0.925736C18.6868 1.03826 18.75 1.19087 18.75 1.35ZM6.75 13.35V18.15C6.75 18.3091 6.68679 18.4617 6.57426 18.5743C6.46174 18.6868 6.30913 18.75 6.15 18.75H1.35C1.19087 18.75 1.03826 18.6868 0.925736 18.5743C0.813214 18.4617 0.75 18.3091 0.75 18.15V13.35C0.75 13.1909 0.813214 13.0383 0.925736 12.9257C1.03826 12.8132 1.19087 12.75 1.35 12.75H6.15C6.30913 12.75 6.46174 12.8132 6.57426 12.9257C6.68679 13.0383 6.75 13.1909 6.75 13.35Z" stroke="#1C2530" stroke-width="1.5" stroke-linecap="round" stroke-linejoin="round"/>
</svg>
