<svg width="188" height="460" viewBox="0 0 188 460" fill="none" xmlns="http://www.w3.org/2000/svg">
<mask id="path-1-inside-1_249_956" fill="white">
<path d="M127.105 278.445C162.486 291.876 187.632 326.094 187.632 366.185C187.632 417.997 145.629 460 93.8164 460C42.0035 460 0.000202065 417.997 0 366.185C0 326.095 25.1463 291.877 60.5264 278.445V0H127.105V278.445Z"/>
</mask>
<path d="M127.105 278.445H119.105C119.105 281.768 121.16 284.745 124.266 285.925L127.105 278.445ZM187.632 366.185L195.632 366.185V366.185H187.632ZM93.8164 460V468H93.8164L93.8164 460ZM0 366.185H-8V366.185L0 366.185ZM60.5264 278.445L63.3657 285.924C66.4723 284.745 68.5264 281.768 68.5264 278.445H60.5264ZM60.5264 0V-8C56.1081 -8 52.5264 -4.41828 52.5264 0L60.5264 0ZM127.105 0H135.105C135.105 -4.41828 131.524 -8 127.105 -8V0ZM127.105 278.445L124.266 285.925C156.642 298.215 179.632 329.525 179.632 366.185H187.632H195.632C195.632 322.663 168.329 285.538 129.945 270.966L127.105 278.445ZM187.632 366.185L179.632 366.185C179.632 413.579 141.211 452 93.8164 452L93.8164 460L93.8164 468C150.047 468 195.632 422.416 195.632 366.185L187.632 366.185ZM93.8164 460V452C46.4217 452 8.00019 413.579 8 366.185L0 366.185L-8 366.185C-7.99978 422.416 37.5853 468 93.8164 468V460ZM0 366.185H8C8 329.526 30.9898 298.215 63.3657 285.924L60.5264 278.445L57.6871 270.966C19.3028 285.538 -8 322.663 -8 366.185H0ZM60.5264 278.445H68.5264V0H60.5264H52.5264V278.445H60.5264ZM60.5264 0V8H127.105V0V-8H60.5264V0ZM127.105 0H119.105V278.445H127.105H135.105V0H127.105Z" fill="#00B274" mask="url(#path-1-inside-1_249_956)"/>
</svg>
